<svg width="157" height="50" viewBox="0 0 157 50" fill="none" xmlns="http://www.w3.org/2000/svg">
<path d="M49.8225 43.4C47.0891 43.4 44.6225 42.8167 42.4225 41.65C40.2558 40.4833 38.5391 38.8167 37.2725 36.65C36.0391 34.4833 35.4225 31.95 35.4225 29.05C35.4225 26.1833 36.0558 23.6667 37.3225 21.5C38.5891 19.3 40.3225 17.6167 42.5225 16.45C44.7225 15.2833 47.1891 14.7 49.9225 14.7C52.6558 14.7 55.1225 15.2833 57.3225 16.45C59.5225 17.6167 61.2558 19.3 62.5225 21.5C63.7891 23.6667 64.4225 26.1833 64.4225 29.05C64.4225 31.9167 63.7725 34.45 62.4725 36.65C61.2058 38.8167 59.4558 40.4833 57.2225 41.65C55.0225 42.8167 52.5558 43.4 49.8225 43.4ZM49.8225 36C51.4558 36 52.8391 35.4 53.9725 34.2C55.1391 33 55.7225 31.2833 55.7225 29.05C55.7225 26.8167 55.1558 25.1 54.0225 23.9C52.9225 22.7 51.5558 22.1 49.9225 22.1C48.2558 22.1 46.8725 22.7 45.7725 23.9C44.6725 25.0667 44.1225 26.7833 44.1225 29.05C44.1225 31.2833 44.6558 33 45.7225 34.2C46.8225 35.4 48.1891 36 49.8225 36ZM76.0084 6V43H67.4584V6H76.0084ZM89.2545 6V43H80.7045V6H89.2545ZM110.951 14.8C114.217 14.8 116.817 15.8667 118.751 18C120.717 20.1 121.701 23 121.701 26.7V43H113.201V27.85C113.201 25.9833 112.717 24.5333 111.751 23.5C110.784 22.4667 109.484 21.95 107.851 21.95C106.217 21.95 104.917 22.4667 103.951 23.5C102.984 24.5333 102.501 25.9833 102.501 27.85V43H93.9506V15.1H102.501V18.8C103.367 17.5667 104.534 16.6 106.001 15.9C107.467 15.1667 109.117 14.8 110.951 14.8ZM124.442 29C124.442 26.1333 124.975 23.6167 126.042 21.45C127.142 19.2833 128.625 17.6167 130.492 16.45C132.359 15.2833 134.442 14.7 136.742 14.7C138.709 14.7 140.425 15.1 141.892 15.9C143.392 16.7 144.542 17.75 145.342 19.05V15.1H153.892V43H145.342V39.05C144.509 40.35 143.342 41.4 141.842 42.2C140.375 43 138.659 43.4 136.692 43.4C134.425 43.4 132.359 42.8167 130.492 41.65C128.625 40.45 127.142 38.7667 126.042 36.6C124.975 34.4 124.442 31.8667 124.442 29ZM145.342 29.05C145.342 26.9167 144.742 25.2333 143.542 24C142.375 22.7667 140.942 22.15 139.242 22.15C137.542 22.15 136.092 22.7667 134.892 24C133.725 25.2 133.142 26.8667 133.142 29C133.142 31.1333 133.725 32.8333 134.892 34.1C136.092 35.3333 137.542 35.95 139.242 35.95C140.942 35.95 142.375 35.3333 143.542 34.1C144.742 32.8667 145.342 31.1833 145.342 29.05Z" fill="#2563EB"/>
<path d="M36.2883 7.9L23.8383 43H13.1383L0.688281 7.9H9.78828L18.4883 34.4L27.2383 7.9H36.2883Z" fill="#2563EB"/>
</svg>
